<svg width="175" height="175" viewBox="0 0 175 175" fill="none" xmlns="http://www.w3.org/2000/svg">
<path d="M87.5 19.0205C118.149 21.5076 132.706 26.0826 139.419 29.5732C142.337 31.0908 143.556 32.2925 144 32.8291V106.61C143.997 106.641 143.993 106.697 143.983 106.777C143.953 107.028 143.879 107.52 143.699 108.241C143.341 109.68 142.56 112.06 140.863 115.281C137.493 121.677 130.467 131.46 115.849 143.749C104.759 150.615 97.2952 153.943 92.7637 155.547C90.4789 156.355 88.9578 156.719 88.1084 156.881C87.8412 156.932 87.6407 156.96 87.5049 156.979C87.3747 156.961 87.1834 156.934 86.9297 156.885C86.1112 156.727 84.6412 156.368 82.4482 155.567C78.0865 153.975 70.9219 150.653 60.4111 143.767C45.1005 131.42 37.7569 121.597 34.2451 115.193C32.4818 111.978 31.6749 109.608 31.3066 108.186C31.1221 107.473 31.046 106.99 31.0156 106.749C31.0072 106.682 31.0027 106.633 31 106.603V32.8291C31.4435 32.2925 32.6627 31.0908 35.5811 29.5732C42.294 26.0826 56.8509 21.5076 87.5 19.0205Z" stroke="#15721C" stroke-width="12"/>
<path d="M81.25 133C70 111.125 65 103.625 50 82.375C61 85.5 70 91 78 99C88.625 78.375 105.5 58 124.375 43C102.5 81.75 97.5 91.125 81.25 133Z" fill="#15721C"/>
</svg>
