<svg width="175" height="175" viewBox="0 0 175 175" fill="none" xmlns="http://www.w3.org/2000/svg">
<g clip-path="url(#clip0_1_2)">
<path d="M88 125L109.651 162.5H66.3494L88 125Z" fill="#FF9900"/>
<path d="M88 50L66.3494 12.5L109.651 12.5L88 50Z" fill="#FF9900"/>
<path d="M50 88L12.5 109.651L12.5 66.3494L50 88Z" fill="#FF9900"/>
<path d="M125 88L162.5 66.3494V109.651L125 88Z" fill="#FF9900"/>
<path d="M39.3604 102.802C45.8421 123.212 64.9438 138 87.5 138C110.056 138 129.157 123.212 135.639 102.802L146.232 108.918C137.489 132.887 114.494 150 87.5 150L86.6924 149.995C60.0481 149.658 37.4221 132.648 28.7666 108.918L39.3604 102.802ZM88.3076 25.0049C115.261 25.3462 138.101 42.7492 146.528 66.9102L135.9 73.0459C129.684 52.1991 110.367 37 87.5 37C64.6327 37 45.315 52.199 39.0986 73.0459L28.4717 66.9102C36.9825 42.5083 60.1963 25 87.5 25L88.3076 25.0049Z" fill="#FF9900"/>
</g>
<defs>
<clipPath id="clip0_1_2">
<rect width="175" height="175" fill="white"/>
</clipPath>
</defs>
</svg>
